<svg width="20" height="17" viewBox="0 0 20 17" fill="none" xmlns="http://www.w3.org/2000/svg">
<path d="M19.6765 16.634C18.6982 15.4659 18.9354 13.8773 19.1679 13.0192C19.387 12.4837 19.5103 11.9138 19.5103 11.3179C19.5103 10.2535 19.131 9.26431 18.4837 8.43498C17.8535 12.3052 13.9693 15.3021 9.24677 15.3758C10.3316 16.1298 11.723 16.5842 13.2407 16.5842C14.3503 16.5842 15.3889 16.34 16.2916 15.9157C17.6775 16.8341 19.403 16.9603 19.403 16.9603C20.1491 16.9598 19.6765 16.634 19.6765 16.634Z" fill="#540CFA"/>
<path d="M17.7735 7.33366C17.7735 3.33613 13.8691 0.0829315 9.07094 0.0829315C4.2721 0.0829315 0.368149 3.33613 0.368149 7.33366C0.368149 8.11474 0.524661 8.89674 0.833963 9.65531C1.19303 10.962 1.54838 13.308 0.1828 15.1224C0.646521 15.0733 2.73024 14.7964 4.4142 13.6818L4.60559 13.5554L4.8135 13.6526C6.11071 14.2616 7.5828 14.5846 9.07094 14.5846C13.8691 14.5846 17.7735 11.3312 17.7735 7.33366Z" fill="#540CFA"/>
</svg>
